<?xml version="1.0" ?>
<svg  version="1.1" viewBox="0 0 48 48" xml:space="preserve" xmlns="http://www.w3.org/2000/svg" xmlns:xlink="http://www.w3.org/1999/xlink">
	<defs>
		<linearGradient id="myGradient" >
		  <stop offset="5%"  stop-color="#89216B" />
		  <stop offset="95%" stop-color="#DA4453" />
		</linearGradient>
	  </defs>
	<style type="text/css">
		.st0{fill:url('#myGradient');}
		.st1{fill:#8d236a;}
		.st2{fill:papayawhip;}
		.st3{fill:#b2325f;}
	</style>
	<circle class="st0" cx="24" cy="24" r="24"/>
	<path class="st1" d="M15.9,16.8v14.4c0,0.6,0.5,1.1,1.1,1.1h11.4l8.1,6.2v-6.2h2.4c0.6,0,1.1-0.5,1.1-1.1V16.8     c0-0.6-0.5-1.1-1.1-1.1H17C16.4,15.7,15.9,16.2,15.9,16.8z"/>
	<path class="st3" d="M32.1,13.2v14.4c0,0.6-0.5,1.1-1.1,1.1H19.6l-8.1,6.2v-6.2H9.1c-0.6,0-1.1-0.5-1.1-1.1V13.2     c0-0.6,0.5-1.1,1.1-1.1H31C31.6,12.2,32.1,12.6,32.1,13.2z"/>
	<circle class="st2" cx="14" cy="20.4" r="1.9"/>
	<circle class="st2" cx="20.1" cy="20.4" r="1.9"/>
	<circle class="st2" cx="26.1" cy="20.4" r="1.9"/>
</svg>
